<?xml version="1.0" encoding="iso-8859-1"?>
<!-- Uploaded to: SVG Repo, www.svgrepo.com, Generator: SVG Repo Mixer Tools -->
<!DOCTYPE svg PUBLIC "-//W3C//DTD SVG 1.1//EN" "http://www.w3.org/Graphics/SVG/1.1/DTD/svg11.dtd">
<svg fill="#000000" version="1.1" id="Capa_1" xmlns="http://www.w3.org/2000/svg" xmlns:xlink="http://www.w3.org/1999/xlink" 
	 width="800px" height="800px" viewBox="0 0 32.75 32.75" xml:space="preserve"
	>
<g>
	<g>
		<path d="M29.375,1.25h-1.123c0.029-0.092,0.059-0.186,0.059-0.288c0-0.53-0.432-0.962-0.963-0.962s-0.961,0.432-0.961,0.962
			c0,0.103,0.028,0.196,0.059,0.288h-3.68c0.029-0.092,0.059-0.186,0.059-0.288c0-0.53-0.432-0.962-0.963-0.962
			C21.332,0,20.9,0.432,20.9,0.962c0,0.103,0.029,0.196,0.06,0.288h-3.681c0.029-0.092,0.058-0.186,0.058-0.288
			c0-0.53-0.43-0.962-0.961-0.962c-0.531,0-0.961,0.432-0.961,0.962c0,0.103,0.028,0.196,0.058,0.288h-3.681
			c0.029-0.092,0.059-0.186,0.059-0.288C11.851,0.432,11.42,0,10.89,0c-0.531,0-0.962,0.432-0.962,0.962
			c0,0.103,0.028,0.196,0.058,0.288h-3.68c0.03-0.092,0.059-0.186,0.059-0.288C6.365,0.432,5.935,0,5.404,0
			C4.873,0,4.442,0.432,4.442,0.962c0,0.103,0.028,0.196,0.058,0.288H3.375c-1.518,0-2.75,1.234-2.75,2.75v26
			c0,1.518,1.232,2.75,2.75,2.75H26.27l5.855-5.855V4C32.125,2.484,30.893,1.25,29.375,1.25z M30.625,26.273l-0.311,0.311h-2.355
			c-1.102,0-2,0.9-2,2v2.355l-0.311,0.311H3.375c-0.689,0-1.25-0.561-1.25-1.25V5h28.5V26.273z"/>
		<path d="M17.785,13.209c0.139,0.08,0.316,0.031,0.396-0.105l0.145-0.252c0.082-0.14,0.033-0.317-0.105-0.397l-5.033-2.904
			c-0.139-0.08-0.316-0.032-0.396,0.106l-0.145,0.251c-0.08,0.139-0.033,0.316,0.106,0.397L17.785,13.209z"/>
		<path d="M13.428,20.757c0.139,0.08,0.316,0.032,0.397-0.106l0.145-0.25c0.081-0.139,0.033-0.316-0.106-0.396L8.832,17.1
			c-0.139-0.08-0.316-0.033-0.397,0.104L8.29,17.456c-0.081,0.14-0.033,0.317,0.106,0.396L13.428,20.757z"/>
		<path d="M13.83,19.479c0.138,0.082,0.317,0.033,0.396-0.104l1.354-2.345l9.557,6.11c0.135,0.086,0.309,0.043,0.389-0.096
			l0.727-1.258c0.08-0.139,0.029-0.312-0.111-0.385l-10.072-5.22l1.353-2.345c0.08-0.138,0.033-0.317-0.106-0.396l-4.53-2.614
			c-0.138-0.08-0.316-0.033-0.396,0.106l-3.196,5.536c-0.079,0.137-0.032,0.316,0.107,0.396L13.83,19.479z"/>
		<path d="M26.062,23.859l0.502,0.289c0.14,0.082,0.317,0.031,0.397-0.104l0.872-1.51c0.08-0.14,0.032-0.317-0.105-0.397
			l-0.504-0.291c-0.138-0.08-0.316-0.031-0.396,0.105l-0.872,1.51C25.876,23.602,25.924,23.777,26.062,23.859z"/>
		<path d="M5.357,26.803h11.498c0.265,0,0.479-0.216,0.479-0.479v-1.916c0-0.264-0.215-0.479-0.479-0.479h-0.606
			c0.077-0.087,0.127-0.197,0.127-0.32V23.13c0-0.263-0.215-0.479-0.479-0.479H6.315c-0.264,0-0.48,0.218-0.48,0.479v0.479
			c0,0.123,0.052,0.233,0.128,0.32H5.356c-0.265,0-0.479,0.215-0.479,0.479v1.916C4.878,26.587,5.093,26.803,5.357,26.803z
			 M5.579,25.135c0.001-0.277,0.227-0.505,0.504-0.505h10.091c0.279,0,0.506,0.228,0.505,0.505l0.001,0.504
			c-0.001,0.278-0.227,0.504-0.506,0.504H6.083c-0.277,0-0.504-0.226-0.504-0.504V25.135z"/>
	</g>
</g>
</svg>